<svg xmlns="http://www.w3.org/2000/svg" width="71.717" height="66.466" viewBox="0 0 71.717 66.466">
  <g id="upload_1_" data-name="upload (1)" transform="translate(0 -17.25)" opacity="0.23">
    <g id="Group_118" data-name="Group 118" transform="translate(0 17.25)">
      <path id="Path_64" data-name="Path 64" d="M69.662,228.454a2.046,2.046,0,0,0-2.055,2.055V249.2a9.22,9.22,0,0,1-9.208,9.208H13.318A9.22,9.22,0,0,1,4.109,249.2V230.2A2.055,2.055,0,1,0,0,230.2V249.2a13.332,13.332,0,0,0,13.318,13.318H58.4A13.332,13.332,0,0,0,71.717,249.2v-18.69A2.056,2.056,0,0,0,69.662,228.454Z" transform="translate(0 -196.051)" fill="#037533"/>
      <path id="Path_65" data-name="Path 65" d="M139.822,33.825l9.558-9.558V65.954a2.055,2.055,0,1,0,4.109,0V24.266l9.558,9.558a2.068,2.068,0,0,0,1.446.609,1.98,1.98,0,0,0,1.446-.609,2.049,2.049,0,0,0,0-2.907L152.881,17.859a2.079,2.079,0,0,0-1.446-.609,1.99,1.99,0,0,0-1.446.609L136.93,30.918a2.05,2.05,0,0,0,2.892,2.907Z" transform="translate(-115.576 -17.25)" fill="#037533"/>
    </g>
  </g>
</svg>
